<svg width="14" height="14" viewBox="0 0 14 14" fill="none" xmlns="http://www.w3.org/2000/svg">
<g id="raphael:edit" clip-path="url(#clip0_24_341)">
<path id="Vector" d="M12.1932 3.44002L10.073 2.10871L6.62117 7.60634L8.73998 8.93634L12.1932 3.44002ZM6.29786 9.29684L6.25105 10.5459L7.35661 9.96096L8.38473 9.41846L6.34029 8.13396L6.29786 9.29684ZM12.7589 1.41746L11.6507 0.720525C11.5166 0.636438 11.3547 0.609019 11.2005 0.644297C11.0462 0.679575 10.9123 0.774661 10.8282 0.90865L10.3907 1.6034L12.5095 2.93427L12.947 2.2404C13.122 1.9604 13.0389 1.59159 12.7589 1.41659V1.41746ZM11.0242 11.8387C11.0242 11.959 10.9257 12.0575 10.8054 12.0575H2.49292C2.4349 12.0575 2.37926 12.0344 2.33824 11.9934C2.29722 11.9524 2.27417 11.8967 2.27417 11.8387V3.52621C2.27417 3.4682 2.29722 3.41256 2.33824 3.37153C2.37926 3.33051 2.4349 3.30746 2.49292 3.30746H8.28717L9.11142 1.99496H2.49292C1.64854 1.99496 0.96167 2.68184 0.96167 3.52621V11.8387C0.96167 12.6831 1.64854 13.37 2.49292 13.37H10.8054C11.6498 13.37 12.3367 12.6831 12.3367 11.8387V4.8549L11.0242 6.9444V11.84V11.8387Z" fill="black"/>
</g>
<defs>
<clipPath id="clip0_24_341">
<rect width="14" height="14" fill="white"/>
</clipPath>
</defs>
</svg>
