<svg width="22" height="22" viewBox="0 0 22 22" fill="none" xmlns="http://www.w3.org/2000/svg">
<g id="bi:exclamation-circle-fill" opacity="0.8" clip-path="url(#clip0_24_54)">
<path id="Vector" d="M9.61651e-07 11C1.2167e-06 8.08262 1.15893 5.28472 3.22183 3.22182C5.28473 1.15892 8.08262 -1.2167e-06 11 -9.61651e-07C13.9174 -7.06605e-07 16.7153 1.15892 18.7782 3.22182C20.8411 5.28473 22 8.08262 22 11C22 13.9174 20.8411 16.7153 18.7782 18.7782C16.7153 20.8411 13.9174 22 11 22C8.08262 22 5.28473 20.8411 3.22182 18.7782C1.15892 16.7153 7.06605e-07 13.9174 9.61651e-07 11ZM11 16.5C11.1738 16.4999 11.3456 16.4634 11.5045 16.3928C11.6633 16.3223 11.8056 16.2193 11.9222 16.0904C12.0387 15.9615 12.127 15.8096 12.1813 15.6445C12.2357 15.4794 12.2548 15.3048 12.2375 15.1319L11.7563 10.3097C11.7401 10.1203 11.6534 9.94384 11.5134 9.81525C11.3733 9.68666 11.1901 9.6153 11 9.6153C10.8099 9.6153 10.6267 9.68666 10.4866 9.81525C10.3466 9.94384 10.2599 10.1203 10.2438 10.3097L9.7625 15.1319C9.74522 15.3048 9.76435 15.4794 9.81866 15.6445C9.87298 15.8096 9.96127 15.9615 10.0778 16.0904C10.1944 16.2193 10.3367 16.3223 10.4955 16.3928C10.6544 16.4634 10.8262 16.4999 11 16.5ZM10.9973 8.25C11.3619 8.25 11.7117 8.10513 11.9695 7.84727C12.2274 7.58941 12.3723 7.23967 12.3723 6.875C12.3723 6.51033 12.2274 6.16059 11.9695 5.90273C11.7117 5.64486 11.3619 5.5 10.9973 5.5C10.6326 5.5 10.2828 5.64486 10.025 5.90273C9.76712 6.16059 9.62225 6.51033 9.62225 6.875C9.62225 7.23967 9.76712 7.58941 10.025 7.84727C10.2828 8.10513 10.6326 8.25 10.9973 8.25Z" fill="#3D3D3D"/>
</g>
<defs>
<clipPath id="clip0_24_54">
<rect width="22" height="22" fill="white" transform="translate(22 22) rotate(-180)"/>
</clipPath>
</defs>
</svg>
